<svg width="48" height="48" viewBox="0 0 48 48" fill="none" xmlns="http://www.w3.org/2000/svg">
<g clip-path="url(#clip0_6826_7074)">
<mask id="mask0_6826_7074" style="mask-type:luminance" maskUnits="userSpaceOnUse" x="0" y="0" width="48" height="48">
<path d="M48 0H0V48H48V0Z" fill="white"/>
</mask>
<g mask="url(#mask0_6826_7074)">
<path d="M48 0H0V48H48V0Z" fill="white"/>
</g>
<path d="M5.5968 10.2449C5.5968 9.19708 6.44622 8.34766 7.49404 8.34766H25.0434C26.0913 8.34766 26.9407 9.19708 26.9407 10.2449V23.0986C26.9407 28.9926 22.1627 33.7706 16.2687 33.7706C10.3748 33.7706 5.5968 28.9926 5.5968 23.0986V10.2449Z" fill="#6E60FF"/>
<path d="M40.5059 18.3086C41.5538 18.3086 42.4031 19.158 42.4031 20.2058V37.7552C42.4031 38.8031 41.5538 39.6525 40.5059 39.6525H27.6522C21.7582 39.6525 16.9802 34.8745 16.9802 28.9805C16.9802 23.0866 21.7582 18.3086 27.6522 18.3086H40.5059Z" fill="#6E60FF" fill-opacity="0.5"/>
</g>
<defs>
<clipPath id="clip0_6826_7074">
<path d="M0 8C0 3.58172 3.58172 0 8 0H40C44.4183 0 48 3.58172 48 8V40C48 44.4183 44.4183 48 40 48H8C3.58172 48 0 44.4183 0 40V8Z" fill="white"/>
</clipPath>
</defs>
</svg>
