<svg width="48" height="48" viewBox="0 0 48 48" fill="none" xmlns="http://www.w3.org/2000/svg">
<g clip-path="url(#clip0_6826_7059)">
<path d="M0 8C0 3.58172 3.58172 0 8 0H40C44.4183 0 48 3.58172 48 8V40C48 44.4183 44.4183 48 40 48H8C3.58172 48 0 44.4183 0 40V8Z" fill="white"/>
<path opacity="0.85" d="M38.0001 23.5C38.0001 26.7526 36.9065 29.9107 34.8952 32.4667C32.8838 35.0228 30.0715 36.8284 26.9102 37.5933C23.7489 38.3583 20.4222 38.0381 17.4648 36.6843C14.5074 35.3305 12.091 33.0217 10.604 30.129C9.11706 27.2363 8.64585 23.9276 9.26614 20.7347C9.88643 17.5419 11.5622 14.6503 14.0241 12.5247C16.486 10.3992 19.591 9.16303 22.8402 9.01503C26.0894 8.86702 29.294 9.81573 31.9389 11.7087L23.5 23.5H38.0001Z" fill="#22CBC8"/>
<path d="M36.0491 9.6543C37.9231 10.9957 39.4504 12.7645 40.5044 14.814C41.5583 16.8636 42.1085 19.1348 42.1094 21.4395L27.6094 21.445L36.0491 9.6543Z" fill="#22CBC8"/>
</g>
<defs>
<clipPath id="clip0_6826_7059">
<rect width="48" height="48" rx="8" fill="white"/>
</clipPath>
</defs>
</svg>
