<svg width="132" height="32" viewBox="0 0 132 32" fill="none" xmlns="http://www.w3.org/2000/svg">
<path d="M28.3103 10.8407H23.5149V8.48468H35.8937V10.8407H31.0982V23.9998H28.3103V10.8407Z" fill="black"/>
<path d="M43.2031 14.5301C41.7334 14.5301 40.6879 15.4998 40.6879 17.1817V23.9998H37.9455V8.48468H40.6273V14.3407H40.7637C41.3016 13.0226 42.4379 12.212 44.2258 12.212C46.6425 12.212 48.2334 13.7801 48.2334 16.5907V23.9998H45.491V17.015C45.491 15.4468 44.6425 14.5301 43.2031 14.5301Z" fill="black"/>
<path d="M50.8155 23.9998H53.5579V17.1589C53.5579 15.6817 54.6716 14.6362 56.1791 14.6362C56.6413 14.6362 57.217 14.7195 57.4519 14.7953V12.2726C57.2019 12.2271 56.77 12.1968 56.467 12.1968C55.1337 12.1968 54.02 12.9544 53.5958 14.3029H53.4746V12.3635H50.8155V23.9998Z" fill="black"/>
<path fill-rule="evenodd" clip-rule="evenodd" d="M68.7934 20.8786C68.3086 22.9013 66.445 24.2271 63.7328 24.2271C60.2253 24.2271 58.0813 21.9013 58.0813 18.2498C58.0813 14.6589 60.2556 12.212 63.5889 12.212C66.4525 12.212 68.9071 14.0074 68.9071 18.0907V18.9316H60.801C60.8238 20.9241 61.998 22.0907 63.7707 22.0907C64.9525 22.0907 65.8616 21.5756 66.2328 20.5907L68.7934 20.8786ZM63.6268 14.3483C61.9904 14.3483 60.8919 15.5983 60.8086 17.0832H66.2783C66.2631 15.4998 65.2025 14.3483 63.6268 14.3483Z" fill="black"/>
<path fill-rule="evenodd" clip-rule="evenodd" d="M76.1654 24.2271C78.8775 24.2271 80.7411 22.9013 81.226 20.8786L78.6654 20.5907C78.2941 21.5756 77.385 22.0907 76.2032 22.0907C74.4305 22.0907 73.2563 20.9241 73.2335 18.9316H81.3396V18.0907C81.3396 14.0074 78.885 12.212 76.0214 12.212C72.6881 12.212 70.5138 14.6589 70.5138 18.2498C70.5138 21.9013 72.6578 24.2271 76.1654 24.2271ZM73.2411 17.0832C73.3244 15.5983 74.4229 14.3483 76.0593 14.3483C77.635 14.3483 78.6956 15.4998 78.7108 17.0832H73.2411Z" fill="black"/>
<path d="M93.5069 20.0226C93.31 22.4923 91.4463 24.2271 88.5221 24.2271C85.0448 24.2271 82.9463 21.7498 82.9463 18.2271C82.9463 14.6741 85.0978 12.212 88.5069 12.212C91.3478 12.212 93.3175 13.871 93.5069 16.3938H90.8857C90.6736 15.2726 89.863 14.4241 88.5448 14.4241C86.8554 14.4241 85.7266 15.8332 85.7266 18.1817C85.7266 20.5604 86.8327 21.9923 88.5448 21.9923C89.7494 21.9923 90.6509 21.2726 90.8857 20.0226H93.5069Z" fill="black"/>
<path fill-rule="evenodd" clip-rule="evenodd" d="M100.621 24.2271C104.03 24.2271 106.197 21.8256 106.197 18.2271C106.197 14.621 104.03 12.212 100.621 12.212C97.2122 12.212 95.0455 14.621 95.0455 18.2271C95.0455 21.8256 97.2122 24.2271 100.621 24.2271ZM100.636 22.0301C98.75 22.0301 97.8258 20.3483 97.8258 18.2195C97.8258 16.0907 98.75 14.3862 100.636 14.3862C102.492 14.3862 103.417 16.0907 103.417 18.2195C103.417 20.3483 102.492 22.0301 100.636 22.0301Z" fill="black"/>
<path d="M108.311 8.48468H111.054V23.9998H108.311V8.48468Z" fill="black"/>
<path d="M119.471 12.3635H117.176V9.57559H114.433V12.3635H112.782V14.4847H114.433V20.9544C114.418 23.1438 116.009 24.2195 118.07 24.1589C118.85 24.1362 119.388 23.9847 119.683 23.8862L119.221 21.7423C119.07 21.7801 118.759 21.8483 118.418 21.8483C117.729 21.8483 117.176 21.6059 117.176 20.4998V14.4847H119.471V12.3635Z" fill="black"/>
<path d="M125.9 12.212C128.627 12.212 130.203 13.4695 130.582 15.4392L128.082 15.712C127.87 14.9468 127.203 14.2574 125.938 14.2574C124.794 14.2574 123.923 14.8029 123.93 15.5907C123.923 16.265 124.392 16.6741 125.574 16.9392L127.559 17.3635C129.756 17.8407 130.824 18.8559 130.832 20.515C130.824 22.7195 128.771 24.2271 125.862 24.2271C123.006 24.2271 121.21 22.962 120.87 20.8256L123.544 20.568C123.779 21.6135 124.597 22.1589 125.854 22.1589C127.157 22.1589 128.021 21.5604 128.021 20.765C128.021 20.1059 127.521 19.6741 126.453 19.4392L124.468 19.0226C122.233 18.5604 121.188 17.4392 121.195 15.7423C121.188 13.5907 123.097 12.212 125.9 12.212Z" fill="black"/>
<path d="M15.1255 8.64596C15.1255 3.51474 10.2379 1.30684 5.57075 2.57305C5.39063 2.62191 5.38254 2.86582 5.55663 2.93308L6.59597 3.33465C6.78082 3.40606 6.76319 3.69518 6.57766 3.76482C3.45611 4.93652 2.30565 9.48003 2.30565 12.4736C2.30565 13.0481 2.59197 13.4658 3.15037 13.4658C3.9391 13.4658 4.20057 12.8521 4.50473 12.1381C4.69878 11.6826 4.91021 11.1863 5.28702 10.7826C5.63117 10.4139 6.13342 10.1303 6.6554 9.83553C7.18851 9.5345 7.74219 9.22185 8.169 8.79503C8.44544 8.5186 8.58603 7.94427 8.65479 7.52062C8.69668 7.26255 8.96135 7.10105 9.14691 7.28522C9.53351 7.66894 9.80876 8.35353 9.80876 9.09317C9.80876 10.3267 9.00496 10.7755 8.18126 11.2355C7.67771 11.5167 7.16672 11.802 6.82739 12.2733C6.65106 12.5182 6.49613 12.8195 6.33169 13.1392C5.76712 14.2371 5.09051 15.5528 3.05099 15.5528C1.21248 15.5528 0.218692 14.2802 0.218692 12.6708C0.218692 9.5954 1.01609 6.52614 2.90323 3.93817C3.0294 3.76514 2.83309 3.51791 2.64007 3.61066L1.02639 4.38599C0.689355 4.54793 0.385141 4.22325 0.60189 3.91857C1.61009 2.50134 3.99485 0 8.26838 0C13.7342 0 18.0075 3.42857 18.0075 8.54659C18.0075 11.794 16.4125 13.8881 15.4642 14.8462C15.1604 15.1532 15.1859 15.7183 15.5212 15.9906C16.6842 16.9352 18.8025 19.1208 18.8025 22.5093C18.8025 27.7267 14.7777 32 8.96403 32C3.15585 32 0.89501 28.3339 0.0189906 25.2869C-0.143095 24.7231 0.776438 24.4882 1.10386 24.9749C2.38929 26.8857 4.59716 28.8199 8.26838 28.8199C11.9511 28.8199 15.0758 26.4845 15.0758 22.3603C15.0758 19.5147 12.6117 17.1781 11.3017 16.1369C10.9498 15.8572 10.9651 15.2716 11.3273 15.0054C12.6558 14.0294 15.1255 11.7918 15.1255 8.64596Z" fill="url(#paint0_linear_174_9710)"/>
<path d="M7.29093 6.2789C7.29093 6.69773 6.9514 7.03725 6.53257 7.03725C6.11374 7.03725 5.77421 6.69773 5.77421 6.2789C5.77421 5.86007 6.11374 5.52054 6.53257 5.52054C6.9514 5.52054 7.29093 5.86007 7.29093 6.2789Z" fill="url(#paint1_linear_174_9710)"/>
<defs>
<linearGradient id="paint0_linear_174_9710" x1="-1.71302e-07" y1="3.03572" x2="16.5498" y2="35.4077" gradientUnits="userSpaceOnUse">
<stop stop-color="#1CC98C"/>
<stop offset="0.205" stop-color="#24CBDE"/>
<stop offset="0.4" stop-color="#57A9F7"/>
<stop offset="0.6" stop-color="#BD52F9"/>
<stop offset="0.8" stop-color="#EBB347"/>
<stop offset="1" stop-color="#FFF845"/>
</linearGradient>
<linearGradient id="paint1_linear_174_9710" x1="-1.71302e-07" y1="3.03572" x2="16.5498" y2="35.4077" gradientUnits="userSpaceOnUse">
<stop stop-color="#1CC98C"/>
<stop offset="0.205" stop-color="#24CBDE"/>
<stop offset="0.4" stop-color="#57A9F7"/>
<stop offset="0.6" stop-color="#BD52F9"/>
<stop offset="0.8" stop-color="#EBB347"/>
<stop offset="1" stop-color="#FFF845"/>
</linearGradient>
</defs>
</svg>
