<svg width="177" height="44" viewBox="0 0 177 44" fill="none" xmlns="http://www.w3.org/2000/svg">
<path d="M37.9618 15.038H31.5315V11.8721H48.1303V15.038H41.7001V32.7206H37.9618V15.038Z" fill="white"/>
<path d="M57.9316 19.9957C55.9608 19.9957 54.559 21.2987 54.559 23.5586V32.7206H50.8816V11.8721H54.4777V19.7412H54.6606C55.3818 17.9698 56.9056 16.8806 59.3029 16.8806C62.5435 16.8806 64.6767 18.9878 64.6767 22.7646V32.7206H60.9994V23.3347C60.9994 21.2274 59.8616 19.9957 57.9316 19.9957Z" fill="white"/>
<path d="M68.1391 32.7206H71.8165V23.5281C71.8165 21.543 73.3097 20.1382 75.3313 20.1382C75.9509 20.1382 76.723 20.2501 77.0379 20.3519V16.962C76.7027 16.901 76.1236 16.8602 75.7173 16.8602C73.9294 16.8602 72.4361 17.8782 71.8673 19.6903H71.7047V17.0842H68.1391V32.7206Z" fill="white"/>
<path fill-rule="evenodd" clip-rule="evenodd" d="M92.2459 28.5264C91.5958 31.2445 89.0968 33.026 85.4601 33.026C80.7568 33.026 77.8819 29.9007 77.8819 24.994C77.8819 20.1687 80.7974 16.8806 85.2671 16.8806C89.107 16.8806 92.3983 19.2932 92.3983 24.7802V25.9102H81.5288C81.5593 28.5875 83.1338 30.1552 85.5109 30.1552C87.0956 30.1552 88.3146 29.463 88.8124 28.1396L92.2459 28.5264ZM85.3179 19.7513C83.1237 19.7513 81.6507 21.431 81.539 23.4263H88.8733C88.853 21.2987 87.4308 19.7513 85.3179 19.7513Z" fill="white"/>
<path fill-rule="evenodd" clip-rule="evenodd" d="M102.131 33.026C105.768 33.026 108.267 31.2445 108.917 28.5264L105.483 28.1396C104.985 29.463 103.766 30.1552 102.182 30.1552C99.8047 30.1552 98.2301 28.5875 98.1997 25.9102H109.069V24.7802C109.069 19.2932 105.778 16.8806 101.938 16.8806C97.4683 16.8806 94.5528 20.1687 94.5528 24.994C94.5528 29.9007 97.4276 33.026 102.131 33.026ZM98.2098 23.4263C98.3216 21.431 99.7945 19.7513 101.989 19.7513C104.102 19.7513 105.524 21.2987 105.544 23.4263H98.2098Z" fill="white"/>
<path d="M125.384 27.3761C125.12 30.6947 122.621 33.026 118.7 33.026C114.038 33.026 111.224 29.6971 111.224 24.9635C111.224 20.1891 114.109 16.8806 118.68 16.8806C122.489 16.8806 125.13 19.11 125.384 22.4999H121.87C121.585 20.9933 120.498 19.8531 118.731 19.8531C116.465 19.8531 114.952 21.7466 114.952 24.9024C114.952 28.0989 116.435 30.0229 118.731 30.0229C120.346 30.0229 121.555 29.0558 121.87 27.3761H125.384Z" fill="white"/>
<path fill-rule="evenodd" clip-rule="evenodd" d="M134.924 33.026C139.495 33.026 142.401 29.7989 142.401 24.9635C142.401 20.1178 139.495 16.8806 134.924 16.8806C130.353 16.8806 127.448 20.1178 127.448 24.9635C127.448 29.7989 130.353 33.026 134.924 33.026ZM134.944 30.0738C132.415 30.0738 131.176 27.8138 131.176 24.9533C131.176 22.0927 132.415 19.8022 134.944 19.8022C137.433 19.8022 138.673 22.0927 138.673 24.9533C138.673 27.8138 137.433 30.0738 134.944 30.0738Z" fill="white"/>
<path d="M145.236 11.8721H148.913V32.7206H145.236V11.8721Z" fill="white"/>
<path d="M160.2 17.0842H157.122V13.338H153.445V17.0842H151.23V19.9346H153.445V28.6282C153.424 31.5702 155.558 33.0158 158.321 32.9343C159.367 32.9038 160.088 32.7002 160.484 32.5679L159.865 29.6869C159.662 29.7378 159.245 29.8295 158.788 29.8295C157.864 29.8295 157.122 29.5037 157.122 28.0174V19.9346H160.2V17.0842Z" fill="white"/>
<path d="M168.82 16.8806C172.477 16.8806 174.59 18.5705 175.098 21.2172L171.746 21.5837C171.462 20.5555 170.568 19.6292 168.871 19.6292C167.337 19.6292 166.169 20.3621 166.179 21.4208C166.169 22.3269 166.799 22.8766 168.384 23.2329L171.045 23.8029C173.991 24.4443 175.423 25.8084 175.433 28.0378C175.423 31.0002 172.67 33.026 168.77 33.026C164.94 33.026 162.532 31.3259 162.075 28.4552L165.661 28.109C165.976 29.5139 167.073 30.2468 168.759 30.2468C170.507 30.2468 171.665 29.4426 171.665 28.3737C171.665 27.4881 170.994 26.9078 169.562 26.5922L166.9 26.0323C163.904 25.4114 162.502 23.9047 162.512 21.6244C162.502 18.7333 165.062 16.8806 168.82 16.8806Z" fill="white"/>
<path d="M20.282 12.0887C20.282 5.19364 13.7282 2.22678 7.46987 3.92823C7.22835 3.9939 7.2175 4.32164 7.45093 4.41203L8.8446 4.95163C9.09246 5.0476 9.06882 5.4361 8.82005 5.52968C4.63433 7.10416 3.09167 13.2095 3.09167 17.2321C3.09167 18.0041 3.47559 18.5654 4.22436 18.5654C5.28197 18.5654 5.63258 17.7407 6.04043 16.7813C6.30064 16.1692 6.58414 15.5023 7.08941 14.9598C7.55089 14.4643 8.22436 14.0832 8.92428 13.6872C9.63913 13.2827 10.3816 12.8626 10.9539 12.289C11.3246 11.9176 11.5131 11.1458 11.6053 10.5765C11.6615 10.2298 12.0164 10.0127 12.2652 10.2602C12.7836 10.7758 13.1526 11.6958 13.1526 12.6896C13.1526 14.3472 12.0748 14.9503 10.9703 15.5684C10.2951 15.9462 9.60992 16.3296 9.15491 16.9629C8.91846 17.292 8.71071 17.6969 8.49022 18.1265C7.73318 19.6018 6.82592 21.3698 4.0911 21.3698C1.62583 21.3698 0.293246 19.6597 0.293246 17.4971C0.293246 13.3645 1.36248 9.2402 3.89297 5.76262C4.06216 5.53011 3.79892 5.1979 3.54009 5.32252L1.37629 6.36438C0.924362 6.58198 0.516438 6.1457 0.80708 5.73628C2.15899 3.83188 5.35674 0.470703 11.0871 0.470703C18.4163 0.470703 24.1464 5.07785 24.1464 11.9552C24.1464 16.3189 22.0077 19.1329 20.7361 20.4202C20.3287 20.8328 20.3629 21.5922 20.8125 21.9581C22.372 23.2274 25.2125 26.1642 25.2125 30.7176C25.2125 37.7285 19.8155 43.4707 12.02 43.4707C4.23171 43.4707 1.20013 38.5443 0.0254646 34.45C-0.191878 33.6924 1.04113 33.3767 1.48018 34.0308C3.20382 36.5984 6.16437 39.1974 11.0871 39.1974C16.0253 39.1974 20.2153 36.0592 20.2153 30.5173C20.2153 26.6936 16.9111 23.5537 15.1545 22.1546C14.6827 21.7788 14.7032 20.9919 15.1889 20.6342C16.9702 19.3227 20.282 16.3159 20.282 12.0887Z" fill="url(#paint0_linear_174_10057)"/>
<path d="M9.77647 8.90797C9.77647 9.47077 9.32119 9.92701 8.75958 9.92701C8.19797 9.92701 7.74269 9.47077 7.74269 8.90797C7.74269 8.34517 8.19797 7.88892 8.75958 7.88892C9.32119 7.88892 9.77647 8.34517 9.77647 8.90797Z" fill="url(#paint1_linear_174_10057)"/>
<defs>
<linearGradient id="paint0_linear_174_10057" x1="-2.297e-07" y1="4.54995" x2="22.2664" y2="48.0116" gradientUnits="userSpaceOnUse">
<stop stop-color="#1CC98C"/>
<stop offset="0.205" stop-color="#24CBDE"/>
<stop offset="0.4" stop-color="#57A9F7"/>
<stop offset="0.6" stop-color="#BD52F9"/>
<stop offset="0.8" stop-color="#EBB347"/>
<stop offset="1" stop-color="#FFF845"/>
</linearGradient>
<linearGradient id="paint1_linear_174_10057" x1="-2.297e-07" y1="4.54995" x2="22.2664" y2="48.0116" gradientUnits="userSpaceOnUse">
<stop stop-color="#1CC98C"/>
<stop offset="0.205" stop-color="#24CBDE"/>
<stop offset="0.4" stop-color="#57A9F7"/>
<stop offset="0.6" stop-color="#BD52F9"/>
<stop offset="0.8" stop-color="#EBB347"/>
<stop offset="1" stop-color="#FFF845"/>
</linearGradient>
</defs>
</svg>
